#!OML:ASF X:\für Bonn\!DataBase\2005_08_10_Bjorn_Final\c3d\bjorn.ASF
:FULLY-SPECIFIED
:DEGREES
479
root 0.247997 2.15726 18.8199 -253.392 -11.8523 -534.143
lowerback 53.3043 6.92404 10.3223
upperback 27.6739 -2.08739 2.22724
thorax 11.0777 -7.06089 -2.97922
lowerneck 13.0478 14.5953 6.70692
upperneck 8.40159 19.5194 -6.63064
head 2.02601 9.64795 -3.52504
rclavicle -4.77083e-014 -4.77083e-015
rhumerus -12.2747 14.2407 -55.4627
rradius 43.4329
rwrist 8.60109
rhand 5.8254 -4.82769
rfingers 7.12502
rthumb 31.1569 -32.1991
lclavicle -4.77083e-014 -4.77083e-015
lhumerus 12.1372 -31.9046 45.4916
lradius 58.2982
lwrist -3.73127
lhand -37.065 -368.091
lfingers 7.12502
lthumb -10.1374 21.6447
rfemur -72.9083 -29.2851 -3.31208
rtibia 122.993
rfoot 33.5875 19.5989
rtoes -1.29273
lfemur -79.2924 19.697 -14.0039
ltibia 127.644
lfoot 25.631 -7.58122
ltoes 4.78405
480
root 0.246304 2.14796 18.8295 -253.624 -11.7953 -534.075
lowerback 53.0214 7.02983 10.1686
upperback 27.6943 -1.96933 2.20996
thorax 11.116 -6.98951 -2.97271
lowerneck 12.8542 14.5936 6.58454
upperneck 8.59595 19.4839 -6.48245
head 2.09023 9.61518 -3.43418
rclavicle -1.11319e-014 -5.40694e-014
rhumerus -10.3116 13.2826 -54.8444
rradius 43.1819
rwrist 8.60366
rhand 6.63709 -4.87095
rfingers 7.12502
rthumb 31.9302 -32.0909
lclavicle -1.11319e-014 -5.40694e-014
lhumerus 13.7762 -31.2732 45.2567
lradius 56.945
lwrist -4.37326
lhand -36.6829 -368.939
lfingers 7.12502
lthumb -9.76868 20.8149
rfemur -72.5904 -29.0134 -3.33603
rtibia 122.859
rfoot 33.6147 19.4239
rtoes -1.1729
lfemur -79.0524 19.6261 -13.8821
ltibia 127.566
lfoot 25.7242 -7.56089
ltoes 4.61876
481
root 0.245123 2.13919 18.839 -253.858 -11.7381 -534.021
lowerback 52.7608 7.1355 10.0112
upperback 27.7036 -1.84737 2.16716
thorax 11.1376 -6.91259 -2.98998
lowerneck 12.6334 14.6007 6.5147
upperneck 8.80199 19.4668 -6.32773
head 2.16949 9.5931 -3.34613
rclavicle -3.18055e-015 -1.74931e-014
rhumerus -8.47555 12.3081 -54.4256
rradius 42.8707
rwrist 8.48084
rhand 6.85844 -4.62531
rfingers 7.12502
rthumb 32.1409 -31.8029
lclavicle -3.18055e-015 -1.74931e-014
lhumerus 15.2833 -30.6719 45.1239
lradius 55.6116
lwrist -4.70156
lhand -36.2773 -369.956
lfingers 7.12502
lthumb -9.37735 19.8155
rfemur -72.2777 -28.7156 -3.36906
rtibia 122.72
rfoot 33.6912 19.2426
rtoes -1.00132
lfemur -78.7909 19.5995 -13.7629
ltibia 127.484
lfoot 25.8204 -7.48183
ltoes 4.68027
482
root 0.243573 2.1293 18.8507 -254.12 -11.6685 -533.942
lowerback 52.5247 7.22586 9.88676
upperback 27.7129 -1.73567 2.15694
thorax 11.1622 -6.84592 -2.98324
lowerneck 12.379 14.6119 6.36954
upperneck 9.00604 19.4473 -6.17313
head 2.2451 9.56778 -3.24462
rclavicle 2.5842e-014 -3.18055e-014
rhumerus -6.68866 11.248 -54.0628
rradius 42.4906
rwrist 8.69412
rhand 6.67205 -4.15946
rfingers 7.12502
rthumb 31.9635 -31.3727
lclavicle 2.5842e-014 -3.18055e-014
lhumerus 16.7229 -30.0765 45.1313
lradius 54.2701
lwrist -5.04026
lhand -35.8749 -370.868
lfingers 7.12502
lthumb -8.98906 18.9209
rfemur -71.9237 -28.4065 -3.37735
rtibia 122.56
rfoot 33.7083 19.097
rtoes -1.014
lfemur -78.5077 19.5265 -13.6132
ltibia 127.396
lfoot 25.9195 -7.39349
ltoes 4.79816
483
root 0.243024 2.11982 18.8626 -254.426 -11.6023 -533.868
lowerback 52.3414 7.31846 9.77188
upperback 27.6992 -1.60655 2.155
thorax 11.1551 -6.77122 -2.96996
lowerneck 12.1688 14.618 6.20796
upperneck 9.21104 19.4162 -5.96567
head 2.30472 9.53571 -3.12832
rclavicle 1.39149e-014 -2.70347e-014
rhumerus -4.99736 10.1337 -53.7974
rradius 42.0388
rwrist 9.00693
rhand 6.35862 -3.64136
rfingers 7.12502
rthumb 31.665 -30.9139
lclavicle 1.39149e-014 -2.70347e-014
lhumerus 18.0105 -29.515 45.2909
lradius 52.9741
lwrist -5.52297
lhand -35.4882 -371.612
lfingers 7.12502
lthumb -8.61593 18.1918
rfemur -71.5079 -28.084 -3.4012
rtibia 122.385
rfoot 33.7524 18.9077
rtoes -0.847465
lfemur -78.1506 19.4604 -13.4496
ltibia 127.291
lfoot 26.0078 -7.32567
ltoes 4.87749
484
root 0.241739 2.10982 18.876 -254.757 -11.5394 -533.78
lowerback 52.1475 7.40606 9.68528
upperback 27.6965 -1.47268 2.17031
thorax 11.1666 -6.69274 -2.95433
lowerneck 12.0008 14.6082 6.06536
upperneck 9.37471 19.3688 -5.77906
head 2.34663 9.49797 -3.02772
rclavicle -9.54166e-015 6.36111e-015
rhumerus -3.37766 9.03013 -53.589
rradius 41.5648
rwrist 9.29905
rhand 5.90788 -3.2004
rfingers 7.12502
rthumb 31.2355 -30.5567
lclavicle -9.54166e-015 6.36111e-015
lhumerus 19.2286 -28.9674 45.5735
lradius 51.734
lwrist -5.89075
lhand -35.0848 -372.302
lfingers 7.12502
lthumb -8.22664 17.5175
rfemur -71.0483 -27.7641 -3.44016
rtibia 122.196
rfoot 33.7809 18.7521
rtoes -0.798378
lfemur -77.7754 19.3434 -13.2948
ltibia 127.18
lfoot 26.1023 -7.31548
ltoes 4.71145
485
root 0.240766 2.09957 18.8888 -255.093 -11.4697 -533.71
lowerback 51.9388 7.49741 9.62562
upperback 27.6999 -1.31885 2.17029
thorax 11.1899 -6.59541 -2.97433
lowerneck 11.8709 14.5732 5.98384
upperneck 9.51194 19.2956 -5.59344
head 2.37823 9.45055 -2.94168
rclavicle 1.98785e-015 -6.20208e-014
rhumerus -1.82859 7.79759 -53.5504
rradius 41.043
rwrist 9.65012
rhand 5.48176 -2.77882
rfingers 7.12502
rthumb 30.8294 -30.2127
lclavicle 1.98785e-015 -6.20208e-014
lhumerus 20.338 -28.4429 45.9661
lradius 50.5798
lwrist -6.21895
lhand -34.6777 -372.887
lfingers 7.12502
lthumb -7.83368 16.948
rfemur -70.5976 -27.4104 -3.47451
rtibia 122.007
rfoot 33.8064 18.5638
rtoes -0.769656
lfemur -77.3774 19.2672 -13.1242
ltibia 127.068
lfoot 26.1912 -7.20531
ltoes 4.8021
